<svg viewBox="0 0 72 72" xmlns="http://www.w3.org/2000/svg">
    <g fill="none" stroke="#000" stroke-linecap="round" stroke-linejoin="round" stroke-width="2">
        <path d="m41 29c3.0991-.1345 4.406-1.0737 5-2 1.5336-2.3915-.8716-5.9648 1-8a3.4923 3.4923 0 0 1 2-1" />
        <path d="m32 29c-3.0991-.1345-4.406-1.0737-5-2-1.5336-2.3915.8716-5.9648-1-8a3.4923 3.4923 0 0 0 -2-1" />
        <path d="m37.6053 37.9318s-.9253 3.9282 3.2869 3.6423 2.8578 8.3959 12.516 2.5864-14.4082-15.1605-14.4082-15.1605" />
        <path d="m33 29s-23.95 9.4212-14.4772 15.119 8.1789-2.8742 12.32-2.61 3.2484-3.6132 3.2484-3.6132" />
        <ellipse cx="36" cy="26" rx="4" ry="3" />
        <path d="m31.0824 41.8024a62.3208 62.3208 0 0 0 4.9176 10.1976 59.8429 59.8429 0 0 0 5.1671-9.9055" />
        <path d="m36 22v-6" />
        <path d="m32.2678 41.2825c-3.0991.1677-4.406 1.3389-5 2.4941-1.5336 2.9823.8716 7.4384-1 9.9764a3.2831 3.2831 0 0 1 -2 1.247" />
        <path d="m39.2678 41.2825a9.8487 9.8487 0 0 1 2.0051.298 4.3811 4.3811 0 0 1 2.9949 2.1961c1.5336 2.9823-.8716 7.4384 1 9.9764a3.2831 3.2831 0 0 0 2 1.247" />
        <path d="m33 29h6" />
    </g>
</svg>